<svg width="31" height="30" viewBox="0 0 31 30" fill="blue" xmlns="http://www.w3.org/2000/svg">
<path d="M14.6463 14.9999H4.25698M3.9625 16.395L2.24603 21.6474C1.30594 24.5241 0.83589 25.9624 1.17322 26.8481C1.46615 27.6174 2.09531 28.2005 2.87166 28.4226C3.76565 28.6781 5.11591 28.0556 7.81645 26.8108L25.1294 18.8299C27.7653 17.6147 29.0833 17.0073 29.4906 16.1633C29.8445 15.43 29.8445 14.5696 29.4906 13.8363C29.0833 12.9925 27.7653 12.3849 25.1294 11.1697L7.78659 3.17518C5.09418 1.93406 3.748 1.3135 2.8549 1.56807C2.07928 1.78915 1.45019 2.37076 1.15624 3.13854C0.817748 4.02262 1.28277 5.45785 2.21284 8.3283L3.96583 13.7387C4.12556 14.2316 4.20544 14.4782 4.23696 14.7302C4.26494 14.954 4.26465 15.1805 4.23612 15.4041C4.20395 15.6561 4.12347 15.9024 3.9625 16.395Z" stroke="white" stroke-width="2" stroke-linecap="round" stroke-linejoin="round"/>
</svg>
