<svg width="27" height="36" viewBox="0 0 27 36" fill="none" xmlns="http://www.w3.org/2000/svg">
<path d="M22.717 23.4943C23.0293 23.1516 23.4476 22.9619 23.8818 22.9662C24.316 22.9705 24.7313 23.1684 25.0383 23.5172C25.3453 23.8661 25.5195 24.338 25.5233 24.8314C25.527 25.3247 25.3601 25.8 25.0585 26.1549L19.7892 32.1421C17.6153 34.6123 14.6667 36 11.5923 36C8.51781 36 5.56927 34.6123 3.3953 32.1421C1.22133 29.6719 0 26.3216 0 22.8282C0 19.3349 1.22133 15.9846 3.3953 13.5144L12.7647 2.87213C13.5285 1.97358 14.4421 1.25686 15.4523 0.7638C16.4624 0.27074 17.5489 0.0112102 18.6483 0.000355213C19.7477 -0.0104998 20.8379 0.227537 21.8555 0.700576C22.873 1.17361 23.7975 1.87218 24.5749 2.75552C25.3523 3.63885 25.9671 4.68927 26.3834 5.84547C26.7997 7.00167 27.0092 8.2405 26.9997 9.48968C26.9901 10.7389 26.7617 11.9734 26.3278 13.1212C25.8939 14.269 25.2631 15.3071 24.4723 16.1749L15.1062 26.821C14.1745 27.8796 12.9108 28.4744 11.5931 28.4744C10.2754 28.4744 9.01173 27.8796 8.07999 26.821C7.14826 25.7623 6.62481 24.3264 6.62481 22.8292C6.62481 21.332 7.14826 19.8961 8.07999 18.8374L15.6908 10.1896C15.8445 10.0148 16.027 9.8761 16.228 9.78144C16.4289 9.68678 16.6443 9.63802 16.8618 9.63793C17.0793 9.63784 17.2947 9.68644 17.4956 9.78093C17.6966 9.87543 17.8792 10.014 18.0331 10.1887C18.187 10.3634 18.309 10.5708 18.3923 10.7991C18.4756 11.0274 18.5186 11.2721 18.5186 11.5192C18.5187 11.7664 18.4759 12.0111 18.3928 12.2395C18.3096 12.4678 18.1877 12.6754 18.0339 12.8502L10.4215 21.4979C10.2678 21.6728 10.1458 21.8803 10.0627 22.1086C9.9795 22.337 9.93673 22.5818 9.93681 22.8289C9.93689 23.076 9.9798 23.3207 10.0631 23.549C10.1464 23.7773 10.2685 23.9848 10.4223 24.1595C10.5762 24.3341 10.7588 24.4727 10.9598 24.5672C11.1608 24.6617 11.3762 24.7103 11.5937 24.7102C11.8112 24.7101 12.0266 24.6613 12.2275 24.5667C12.4284 24.472 12.6109 24.3333 12.7647 24.1585L22.1308 13.5144C22.6052 12.9937 22.9837 12.3708 23.2441 11.6821C23.5044 10.9934 23.6415 10.2527 23.6472 9.50322C23.6529 8.75371 23.5272 8.01042 23.2775 7.3167C23.0277 6.62298 22.6588 5.99273 22.1923 5.46273C21.7259 4.93272 21.1712 4.51358 20.5607 4.22976C19.9502 3.94594 19.296 3.80311 18.6364 3.80963C17.9767 3.81614 17.3249 3.97186 16.7188 4.26769C16.1127 4.56353 15.5645 4.99356 15.1062 5.53269L5.73847 16.1768C4.95368 17.0464 4.32864 18.0843 3.89963 19.2304C3.47062 20.3766 3.24617 21.6081 3.2393 22.8536C3.23243 24.0991 3.44329 25.3337 3.85962 26.4859C4.27596 27.638 4.8895 28.6848 5.66464 29.5654C6.43979 30.4461 7.36111 31.143 8.37517 31.6159C9.38923 32.0888 10.4758 32.3283 11.572 32.3203C12.6681 32.3123 13.7519 32.0571 14.7605 31.5695C15.7692 31.0818 16.6826 30.3715 17.4477 29.4796L22.717 23.4943Z" fill="#4F3FE1"/>
</svg>
